# xmcd CD database file
#
# Track frame offsets:
#	150
#	16577
#	34462
#	60052
#	74607
#	93035
#	102830
#	129960
#	151397
#	174130
#	192322
#	212937
#	230605
#	250417
#	268570
#	289345
#
# Disc length: 4156 seconds
#
# Revision: 0
# Processed by: cddbd v1.5.1PL0 Copyright (c) Steve Scherf et al.
# Submitted via: CDex 1.51
#
DISCID=d7103a10
DTITLE=影山ヒロノブ - Power Live '98
DYEAR=1900
DGENRE=Anime
TTITLE0=聖闘士神話〜ソルジャー・ドリーム〜
TTITLE1=Boys Me 〜君にあげるために〜
TTITLE2=Mind Power …気…
TTITLE3=ゲッターロボ！
TTITLE4=こころはタマゴ
TTITLE5=Lonely Star
TTITLE6=Stand Alone 〜涸れ果てた心に〜
TTITLE7=運命の日 〜魂Vs魂〜
TTITLE8=Answer Of Tears
TTITLE9=僕達は天使だった
TTITLE10=Cha-La Head-Cha-La
TTITLE11=イカスミダ、タコスミダ
TTITLE12=For Ever〜
TTITLE13=アニメじゃない −夢を忘れた古い地球人よ−
TTITLE14=メロスのように −Lonely Way−
TTITLE15=君だけのために
EXTD=
EXTT0=
EXTT1=
EXTT2=
EXTT3=
EXTT4=
EXTT5=
EXTT6=
EXTT7=
EXTT8=
EXTT9=
EXTT10=
EXTT11=
EXTT12=
EXTT13=
EXTT14=
EXTT15=
PLAYORDER=
